PathFileType	4	(X/Y/Z)	Run_200 02
DataRate	CameraRate	NumFrames	NumMarkers	Units	OrigDataRate	OrigDataStartFrame	OrigNumFrames
100	100	4	42	mm	100	13	128
Frame#	Time	RASI			LPSI			RPSI			RTH1			RTH2			RTH3			LTH1			LTH2			LTH3			RTB1			RTB2			RTB3			LTB1			LTB2			LTB3			RCAL			RTOE			RMT5			LCAL			LTOE			LMT5			LACR			RACR			C7			RUA1			RUA2			RUA3			RLEL			RMEL			LUA2			LUA3			LLEL			LMEL			RFAsuperior			RFAradius			RFAulna			LFAsuperior			LFAradius			LFAulna			LUA1			CLAV			LASI			
		X1	Y1	Z1	X2	Y2	Z2	X3	Y3	Z3	X4	Y4	Z4	X5	Y5	Z5	X6	Y6	Z6	X7	Y7	Z7	X8	Y8	Z8	X9	Y9	Z9	X10	Y10	Z10	X11	Y11	Z11	X12	Y12	Z12	X13	Y13	Z13	X14	Y14	Z14	X15	Y15	Z15	X16	Y16	Z16	X17	Y17	Z17	X18	Y18	Z18	X19	Y19	Z19	X20	Y20	Z20	X21	Y21	Z21	X22	Y22	Z22	X23	Y23	Z23	X24	Y24	Z24	X25	Y25	Z25	X26	Y26	Z26	X27	Y27	Z27	X28	Y28	Z28	X29	Y29	Z29	X30	Y30	Z30	X31	Y31	Z31	X32	Y32	Z32	X33	Y33	Z33	X34	Y34	Z34	X35	Y35	Z35	X36	Y36	Z36	X37	Y37	Z37	X38	Y38	Z38	X39	Y39	Z39	X40	Y40	Z40	X41	Y41	Z41	X42	Y42	Z42	

1	0.83	1233.237613	1052.082007	-197.818005	1066.782737	1097.531702	-374.37227	1060.28001	1094.785551	-281.249148	1214.567726	872.939285	-142.52297	1270.642941	779.781231	-155.652839	1231.12267	640.676118	-178.810228	1149.71489	894.7704199999999	-507.355139	1176.647892	754.683054	-471.154615	1072.693793	658.861496	-472.986768	1330.844717	394.49055	-257.558796	1299.98343	284.273905	-219.032042	1334.390771	220.16807	-285.389056	947.1401509999999	397.533563	-401.51339	880.151837	380.059556	-445.569777	837.405465	311.48868	-390.16576	1238.333663	91.94627800000001	-293.075521	1467.610701	146.355212	-303.666589	1459.246262	109.643262	-231.824001	674.8217969999999	316.204875	-375.842184	792.588183	107.015503	-343.003505	755.957013	108.73515	-426.87174	1235.10804	1597.39241	-463.646631	1198.212156	1563.390579	-135.671496	1145.869556	1600.332098	-309.995852	1099.345432	1476.001979	-59.426728	1035.660161	1490.324107	-84.40727200000001	1017.896801	1428.61347	-46.497384	955.008752	1366.383797	-35.942562	933.333224	1373.419617	-128.459481	1122.941672	1450.147466	-570.588563	1165.471007	1383.411289	-608.427855	1150.751072	1311.699973	-627.061056	1087.93888	1298.758075	-557.886484	1038.574066	1338.682347	-46.824546	1188.10692	1295.16269	-122.107644	1159.736675	1231.891472	-102.370817	1224.63725	1295.413209	-579.806267	1327.836724	1318.030514	-434.324315	1338.115116	1247.730681	-447.477241	1203.795233	1495.578891	-567.716016	1261.6966	1514.568076	-268.87191	1240.617607	1045.488977	-448.853095	
2	0.84	1233.95606	1046.60366	-197.013484	1066.324759	1091.185786	-373.579114	1060.116317	1088.063754	-280.319643	1215.386394	867.921019	-142.123706	1272.698366	775.92301	-155.879252	1234.238517	635.642471	-180.432603	1151.388138	888.946074	-507.117808	1180.763332	749.676819	-471.755261	1079.456641	651.593626	-473.724325	1328.309804	386.829249	-258.112141	1294.359372	277.667121	-219.887977	1326.868007	212.624689	-286.158083	950.834884	393.83679	-403.953877	882.726376	380.237721	-447.399168	837.021608	313.201312	-392.129062	1226.871837	91.65754099999999	-293.94801	1457.801809	132.936106	-302.990193	1446.464751	96.871183	-231.547703	674.045121	324.913021	-377.175203	784.320774	111.623739	-345.421614	747.538374	114.968808	-429.407328	1233.762973	1590.764619	-463.375832	1199.868856	1555.991062	-133.98602	1146.286097	1594.182479	-307.733382	1102.836578	1465.808109	-56.718235	1038.358831	1479.15635	-79.940962	1022.335508	1416.353698	-43.336274	960.814724	1353.307881	-32.605881	937.8344039999999	1360.65878	-124.764793	1117.806093	1444.842642	-567.941526	1158.659559	1377.753482	-607.182804	1142.961357	1306.537193	-625.958039	1081.673404	1293.852482	-555.594637	1044.788654	1327.316864	-44.588077	1194.111825	1286.703948	-122.033919	1167.291837	1223.014827	-101.517587	1217.404717	1287.13187	-581.0347	1324.774136	1303.943638	-437.155201	1332.369505	1233.755823	-451.995791	1198.662577	1489.848356	-565.227503	1262.20984	1507.995742	-267.900684	1240.183754	1039.279122	-448.782487	
3	0.85	1234.501714	1040.198851	-196.192371	1065.726769	1083.995904	-372.934946	1059.808312	1080.491663	-279.229482	1216.403519	862.39486	-142.792339	1274.434587	772.0577510000001	-157.836405	1237.639726	630.137774	-181.861097	1152.842934	882.371183	-506.890631	1185.021076	743.814272	-473.11039	1086.370027	643.5328040000001	-475.05676	1325.645084	378.575485	-258.314336	1287.385969	270.825421	-220.816579	1318.296443	204.659287	-287.029876	955.6474459999999	389.372409	-406.802565	886.391313	379.798799	-449.350073	837.976049	314.301685	-394.315831	1213.307891	92.76913500000001	-295.069456	1446.115254	117.177147	-302.209624	1431.704436	81.87072000000001	-230.958002	675.044858	333.013217	-378.140694	777.763251	115.766884	-348.383826	740.675763	120.963555	-432.285349	1232.135452	1583.035467	-462.97598	1201.591609	1547.577829	-132.355054	1146.704329	1587.028861	-305.506009	1106.718892	1454.370023	-54.028167	1041.420841	1466.686569	-75.27474599999999	1027.362259	1402.698123	-40.200349	967.35983	1338.845593	-29.199403	942.886942	1346.502342	-120.945292	1112.188286	1438.534856	-564.903874	1151.290471	1371.016418	-605.438373	1134.367667	1300.410495	-624.31834	1074.798955	1287.971565	-552.536051	1051.582808	1314.570283	-42.388169	1200.589814	1276.831787	-121.678701	1175.133605	1212.652573	-100.893942	1209.374891	1277.647242	-582.0500970000001	1321.318834	1288.268033	-440.432747	1325.968076	1218.349565	-457.040608	1193.04477	1483.139662	-562.1941880000001	1262.658923	1500.130722	-267.352989	1239.570771	1032.313226	-448.675697	
4	0.86	1234.531891	1032.925347	-195.4753	1064.598651	1076.109987	-372.395441	1059.198446	1072.380632	-278.138354	1217.467859	856.639802	-144.055726	1275.629352	768.078751	-160.399583	1241.092622	624.585372	-182.736788	1154.043552	875.004394	-506.545829	1189.346321	736.988483	-475.066385	1093.48858	634.65522	-476.716656	1323.594158	370.806887	-258.69515	1280.403713	264.658758	-222.075663	1309.456372	197.408718	-288.462404	961.436412	384.139456	-409.71964	891.159409	378.640752	-451.276063	840.280232	314.747266	-396.660843	1198.542574	94.410325	-296.372927	1432.866411	102.286271	-302.528559	1416.26055	68.365348	-230.672799	677.850782	340.477167	-378.723783	772.935349	119.473058	-351.916882	735.465734	126.799915	-435.588707	1230.21485	1574.20846	-462.399616	1203.404435	1538.206571	-130.725285	1147.179022	1578.840864	-303.394035	1110.97918	1441.790919	-51.385577	1044.872945	1452.988591	-70.500883	1032.93566	1387.85719	-37.05078	974.601376	1323.136886	-25.77055	948.377973	1331.029498	-116.973211	1106.114881	1431.292602	-561.468378	1143.443128	1363.311889	-603.2363790000001	1125.168324	1293.405693	-622.160768	1067.528836	1281.196855	-548.812421	1058.906615	1300.56882	-40.246962	1207.482138	1265.570501	-121.181095	1183.253982	1200.871299	-100.432755	1200.655963	1267.196822	-582.769631	1317.342172	1271.086801	-444.161709	1318.911733	1201.610267	-462.680322	1187.060603	1475.416077	-558.906443	1263.255398	1491.263554	-267.007129	1238.453419	1024.645007	-448.739379	
